# xmcd CD database file
#
# Track frame offsets:
#	150
#	2710
#	16339
#	36061
#	50422
#	51636
#	69570
#	80893
#	96825
#	97998
#	118818
#	131213
#	143948
#	154950
#
# Disc length: 2278 seconds
#
# Revision: 0
# Processed by: cddbd v1.4PL0 Copyright (c) Steve Scherf et al.
# Submitted via: CdAid 2001.05.15.01
#
DISCID=c808e40e
DTITLE=Dale Watson and his Lone Stars - Preachin' to the Choir [CD2]
DYEAR=1900
DGENRE=
TTITLE0=Yee-hah
TTITLE1=Turn off the Jukebox
TTITLE2=You think you'd know better
TTITLE3=No Fussin', no Crusin'
TTITLE4=Mandatory Merle Song
TTITLE5=Mama's Hungry Eyes
TTITLE6=Another Day, Another Doller
TTITLE7=Heart of Stone
TTITLE8=Preachin' the Choir
TTITLE9=Country my Ass
TTITLE10=Return to Sender
TTITLE11=You are my Friends
TTITLE12=Viva Las Vegas
TTITLE13=Call it a Night - Country my Ass (reprise)
EXTD=
EXTT0=
EXTT1=
EXTT2=
EXTT3=
EXTT4=
EXTT5=
EXTT6=
EXTT7=
EXTT8=
EXTT9=
EXTT10=
EXTT11=
EXTT12=
EXTT13=
PLAYORDER=
